HIERARCHY
ROOT Hips
{
	OFFSET 305.588898 92.559578 -272.186401
	CHANNELS 6 Xposition Yposition Zposition Zrotation Yrotation Xrotation 
	JOINT LeftUpLeg
	{
		OFFSET 0.103462 1.857825 10.548491
		CHANNELS 3 Zrotation Yrotation Xrotation
		JOINT LeftLeg
		{
			OFFSET 43.500000 -0.000038 -0.000006
			CHANNELS 3 Zrotation Yrotation Xrotation
			JOINT LeftFoot
			{
				OFFSET 42.372196 0.000034 -0.000012
				CHANNELS 3 Zrotation Yrotation Xrotation
				JOINT LeftToe
				{
					OFFSET 17.299999 -0.000001 -0.000008
					CHANNELS 3 Zrotation Yrotation Xrotation
					End Site
					{
						OFFSET 0.000000 0.000000 0.000000
					}
				}
			}
		}
	}
	JOINT RightUpLeg
	{
		OFFSET 0.103456 1.857821 -10.548490
		CHANNELS 3 Zrotation Yrotation Xrotation
		JOINT RightLeg
		{
			OFFSET 43.500038 -0.000011 0.000011
			CHANNELS 3 Zrotation Yrotation Xrotation
			JOINT RightFoot
			{
				OFFSET 42.372265 0.000004 0.000029
				CHANNELS 3 Zrotation Yrotation Xrotation
				JOINT RightToe
				{
					OFFSET 17.299988 -0.000007 0.000004
					CHANNELS 3 Zrotation Yrotation Xrotation
					End Site
					{
						OFFSET 0.000000 0.000000 0.000000
					}
				}
			}
		}
	}
	JOINT Spine
	{
		OFFSET 6.901963 -2.603729 -0.000012
		CHANNELS 3 Zrotation Yrotation Xrotation
		JOINT Spine1
		{
			OFFSET 12.588106 0.000010 0.000003
			CHANNELS 3 Zrotation Yrotation Xrotation
			JOINT Spine2
			{
				OFFSET 12.343199 -0.000001 -0.000002
				CHANNELS 3 Zrotation Yrotation Xrotation
				JOINT Neck
				{
					OFFSET 25.832895 -0.000006 0.000023
					CHANNELS 3 Zrotation Yrotation Xrotation
					JOINT Head
					{
						OFFSET 11.766605 0.000011 -0.000027
						CHANNELS 3 Zrotation Yrotation Xrotation
						End Site
						{
							OFFSET 0.000000 0.000000 0.000000
						}
					}
				}
				JOINT LeftShoulder
				{
					OFFSET 19.745903 -1.480368 6.000127
					CHANNELS 3 Zrotation Yrotation Xrotation
					JOINT LeftArm
					{
						OFFSET 11.284108 0.000010 -0.000010
						CHANNELS 3 Zrotation Yrotation Xrotation
						JOINT LeftForeArm
						{
							OFFSET 33.000069 0.000000 0.000030
							CHANNELS 3 Zrotation Yrotation Xrotation
							JOINT LeftHand
							{
								OFFSET 25.199997 0.000019 0.000001
								CHANNELS 3 Zrotation Yrotation Xrotation
								End Site
								{
									OFFSET 0.000000 0.000000 0.000000
								}
							}
						}
					}
				}
				JOINT RightShoulder
				{
					OFFSET 19.746101 -1.480371 -6.000072
					CHANNELS 3 Zrotation Yrotation Xrotation
					JOINT RightArm
					{
						OFFSET 11.284140 -0.000007 -0.000004
						CHANNELS 3 Zrotation Yrotation Xrotation
						JOINT RightForeArm
						{
							OFFSET 33.000080 0.000016 -0.000002
							CHANNELS 3 Zrotation Yrotation Xrotation
							JOINT RightHand
							{
								OFFSET 25.199766 0.000146 0.000422
								CHANNELS 3 Zrotation Yrotation Xrotation
								End Site
								{
									OFFSET 0.000000 0.000000 0.000000
								}
							}
						}
					}
				}
			}
		}
	}
}
MOTION
Frames: 12
Frame Time: 0.033333
45.349831 77.133987 -178.114700 103.134197 3.627696 -166.235958 153.850776 2.344498 171.998821 -109.240994 4.499902 -13.691702 90.831626 8.263552 -6.283224 21.454563 0.003086 0.000002 155.089677 -6.350403 -170.839314 -67.864562 0.011631 0.112849 97.041661 -0.357627 -3.052794 21.454558 -0.003110 -0.000017 11.294274 2.549606 1.262634 12.648144 4.945615 2.799559 12.329146 4.962560 2.769612 8.291545 -10.054416 -10.589113 -10.972001 12.111820 -15.660621 -170.134411 -75.681221 -11.574082 8.994718 69.138016 32.373311 -57.930611 -17.258302 2.175654 15.664093 -14.249819 11.827366 169.913509 73.540415 -8.927019 -29.085968 -43.905795 3.919749 -90.003315 5.746892 -2.748851 -5.346934 1.221179 -45.761769 
47.600159 78.833008 -178.056503 102.072697 2.324996 -163.501956 148.342242 3.399308 175.361774 -107.245506 4.165270 -12.496650 90.905665 7.583685 -5.565075 21.454551 0.003093 0.000001 157.838363 -5.252504 -169.626109 -64.599362 -0.500633 0.671024 97.087096 -0.689113 -2.715459 21.454557 -0.003106 -0.000016 11.183479 2.042992 1.915212 12.429675 3.868088 4.041417 12.111632 3.892537 4.018017 8.251134 -9.784640 -12.761293 -10.357972 13.575450 -18.218549 -169.009916 -75.857597 -12.723879 12.929558 65.023797 34.353324 -70.508582 -13.904821 2.436459 4.106421 -13.032659 35.280762 169.772029 74.735916 -9.032282 -33.595211 -45.335258 6.201753 -93.257060 3.327005 -2.725093 -4.931910 0.816194 -46.216823 
49.895710 81.638283 -178.242798 101.154910 0.795825 -159.693976 144.475317 5.152891 178.866399 -105.858916 3.946810 -11.979043 90.307259 7.280490 -5.296367 21.454560 0.003089 0.000000 162.503410 -4.430499 -171.364515 -57.905005 1.326966 2.581778 95.576879 -1.955245 -1.637385 21.454557 -0.003107 -0.000017 11.085721 1.563836 2.311606 12.222580 2.874368 4.777112 11.905245 2.903269 4.759718 8.990394 -9.223098 -15.031511 -10.106247 15.869048 -21.082864 -167.118965 -76.391178 -14.655216 15.250262 62.070963 33.608776 -79.819134 -9.834026 2.546395 -6.721211 -9.827223 57.280719 172.898288 75.053704 -5.826399 -36.156604 -45.894561 5.139621 -96.711620 2.225271 -2.802859 -3.177448 1.531063 -37.853841 
52.104660 85.072922 -178.662598 99.536395 -1.354343 -156.387945 142.196807 6.882003 -179.299296 -105.115081 3.934999 -12.143068 89.630879 7.267418 -6.091256 21.454550 0.003100 -0.000001 167.581942 -3.249893 -172.838647 -49.296668 1.735474 4.473735 91.921806 -3.140098 -0.254557 21.454555 -0.003110 -0.000017 10.888120 0.928587 2.511929 11.800217 1.595814 5.105940 11.483361 1.626716 5.096257 10.570099 -8.931680 -16.608723 -9.916791 18.779149 -23.408493 -165.202509 -77.819692 -16.603690 20.378298 60.605730 35.965041 -86.371751 -6.798678 2.620254 -9.862824 -7.992676 62.463726 176.340799 76.378816 -2.275894 -37.805094 -48.952686 3.593226 -99.036193 1.573216 -2.861384 -3.388533 1.776281 -31.359468 
53.922619 88.607483 -179.469696 97.387521 -3.293216 -154.890987 141.018913 7.432096 179.921840 -105.182700 4.015603 -12.572729 89.260969 7.732695 -4.955543 21.454560 0.003090 -0.000001 170.686332 -1.037002 -173.546637 -42.467746 1.817820 4.912732 83.426833 -3.573847 -0.448575 21.454565 -0.003108 -0.000018 10.673053 0.285769 2.771494 11.340593 0.298228 5.557541 11.024134 0.331873 5.555652 12.112034 -9.772828 -17.800236 -9.628528 21.531292 -25.345176 -164.981703 -77.452815 -16.831097 26.562939 57.727844 38.620366 -90.714700 -3.997929 2.616414 -8.092151 -7.674475 52.435762 177.741767 76.250422 -0.848626 -36.382799 -51.494295 0.000525 -101.128300 1.183921 -2.927671 -2.793244 -0.412283 -32.127441 
55.379360 91.692337 -180.571106 94.516404 -5.515415 -155.083010 140.812928 7.684008 177.493776 -105.484212 4.161589 -12.409393 89.102939 7.750247 -4.091014 21.454545 0.003094 0.000001 170.593414 2.680999 -172.664764 -40.067666 0.853190 3.643033 75.033542 -2.667877 -0.169192 21.454560 -0.003107 -0.000018 10.422146 -0.433564 3.089584 10.801156 -1.153869 6.125294 10.484999 -1.116787 6.132122 13.347073 -11.518679 -18.660893 -9.538400 23.414971 -26.771835 -161.788699 -75.995301 -20.103994 31.499337 55.071819 41.938751 -93.133844 -3.168016 2.665826 -4.282771 -6.773722 39.149835 178.509193 76.766292 -0.054898 -33.654924 -54.383117 -4.972585 -102.177895 1.106632 -2.969046 -3.303606 -1.992756 -35.279215 
56.817421 94.003052 -181.701706 92.003700 -6.323288 -155.687988 142.056528 7.057605 176.264083 -105.887507 4.075579 -12.051091 89.148005 7.406071 -4.736561 21.454553 0.003091 -0.000000 167.855970 5.124606 -170.408466 -42.034432 -0.679420 2.328816 72.178803 -1.999742 -1.115849 21.454565 -0.003110 -0.000016 10.121771 -0.791816 3.446964 10.176033 -1.883841 6.811601 9.860225 -1.842623 6.822790 13.315632 -13.623966 -19.299205 -8.242856 24.453559 -27.499004 -158.227124 -73.476211 -23.787199 35.084920 52.580579 44.271114 -93.824157 -2.756954 2.667795 -3.729918 -7.479386 28.924014 178.851017 77.418733 0.306201 -28.996096 -56.987103 -10.488354 -103.100599 0.633704 -2.977138 -0.836547 -5.812038 -36.033442 
58.354698 95.300880 -182.762207 90.689824 -6.802899 -156.272952 145.850849 6.849305 175.586050 -105.774311 4.057602 -12.047270 89.889422 7.337080 -5.241960 21.454558 0.003091 -0.000001 165.516616 6.170812 -168.252039 -44.160441 -1.193770 4.054132 73.946223 -2.666266 0.553308 21.454557 -0.003107 -0.000017 10.034843 -0.912555 3.746343 9.989278 -2.145246 7.400932 9.673839 -2.100494 7.413657 13.277434 -15.176124 -19.581097 -7.961140 25.337767 -28.040203 -154.338383 -71.150900 -27.830417 39.119611 51.654836 46.330023 -93.112554 -2.611345 2.625985 -4.966369 -10.302311 21.994437 178.066720 77.902091 -0.483504 -22.634704 -58.472614 -16.910833 -104.463898 0.457084 -3.025310 1.885461 -8.812191 -35.953856 
59.907539 95.524452 -183.631302 89.746118 -6.636550 -155.499024 149.971884 7.354202 176.122971 -105.402106 4.213057 -11.891982 89.887072 7.292258 -4.749552 21.454555 0.003089 -0.000002 164.044082 6.035600 -163.302419 -43.777899 -1.592014 6.169362 78.795036 -3.608362 2.677119 21.454560 -0.003108 -0.000017 9.863556 -0.778114 3.867479 9.652853 -1.876215 7.657340 9.337681 -1.829943 7.668442 14.426606 -15.878171 -20.050896 -8.318133 26.192015 -28.763788 -153.281808 -70.165400 -28.942790 44.388259 52.739972 48.771488 -89.308138 -2.823009 2.472044 -5.511280 -14.541816 17.193348 -179.538298 78.047089 1.958314 -15.115192 -58.928543 -23.421415 -104.884405 0.363522 -3.037414 3.298165 -11.705275 -34.515210 
61.479500 94.715401 -184.412994 88.232882 -6.139285 -154.005002 153.198766 8.300706 177.280401 -104.708911 4.190972 -11.877390 89.840886 7.311585 -4.511539 21.454558 0.003094 0.000001 162.706444 5.900207 -158.649626 -41.654838 -0.335283 8.396142 84.183024 -5.116510 3.413728 21.454553 -0.003109 -0.000017 9.503823 -0.641668 3.911339 8.942015 -1.583600 7.761951 8.626976 -1.536710 7.771299 15.102404 -16.168506 -20.563714 -7.563081 26.785225 -29.174057 -152.162408 -69.665703 -30.109895 47.068302 54.572764 52.312624 -82.856014 -5.859534 2.400772 -2.906607 -20.085636 9.562727 -176.228006 77.296821 5.321400 -7.222436 -57.802504 -29.044939 -104.855500 0.284553 -3.030629 3.377650 -14.666839 -34.498309 
63.082981 93.067360 -185.038498 86.412241 -5.853819 -152.262935 155.514050 9.333597 178.637546 -103.912804 4.130122 -11.380602 89.771656 6.840764 -5.371555 21.454560 0.003090 -0.000004 161.829147 5.329099 -154.304205 -38.394836 -0.194159 10.315571 86.736128 -6.369849 4.116067 21.454560 -0.003109 -0.000018 9.140688 -0.633484 3.903595 8.217120 -1.542333 7.752926 7.902078 -1.495500 7.762024 14.874127 -16.623864 -20.960889 -6.366672 27.597244 -29.492183 -149.938211 -69.803809 -32.397995 46.970671 56.935770 55.098709 -75.061416 -9.476465 2.318671 4.153123 -22.047115 -0.838542 -174.934204 76.973595 6.637805 -0.211660 -56.776241 -32.296802 -104.702217 0.234355 -3.020363 2.275460 -14.045719 -33.762749 
64.665100 90.322289 -185.571106 85.280950 -5.603895 -150.024053 157.321359 10.114301 -179.498027 -104.009294 4.001655 -11.651307 90.100352 7.104841 -4.916992 21.454557 0.003091 0.000002 161.804313 3.209505 -153.796285 -34.895860 -1.300915 12.262350 88.689487 -8.548893 -1.291225 21.454557 -0.003112 -0.000017 8.979839 -0.559348 3.865127 7.901140 -1.380995 7.683509 7.586073 -1.334569 7.691637 14.399284 -16.423673 -21.546766 -7.309159 27.633613 -30.408248 -153.218915 -69.597401 -29.022410 43.461474 57.801254 54.064424 -66.545679 -12.387001 2.171527 11.410172 -21.610797 -10.218009 -176.690027 76.215718 4.837380 4.060381 -53.839127 -31.935079 -103.768906 0.367304 -2.988258 0.233366 -10.870834 -33.108546 
